<svg xmlns="http://www.w3.org/2000/svg" xmlns:xlink="http://www.w3.org/1999/xlink" width="602" zoomAndPan="magnify" viewBox="0 0 451.5 451.5" height="602" preserveAspectRatio="xMidYMid meet" version="1.0"><defs><clipPath id="3b62add87d"><path d="M 75.4375 75.4375 L 376 75.4375 L 376 376 L 75.4375 376 Z M 75.4375 75.4375 " clip-rule="nonzero"/></clipPath><clipPath id="52f11947b2"><path d="M 93.25 93.25 L 358 93.25 L 358 358 L 93.25 358 Z M 93.25 93.25 " clip-rule="nonzero"/></clipPath><clipPath id="5b38c4d88c"><path d="M 357.988281 225.625 C 357.988281 298.726562 298.726562 357.988281 225.625 357.988281 C 152.523438 357.988281 93.261719 298.726562 93.261719 225.625 C 93.261719 152.523438 152.523438 93.261719 225.625 93.261719 C 298.726562 93.261719 357.988281 152.523438 357.988281 225.625 Z M 357.988281 225.625 " clip-rule="nonzero"/></clipPath><clipPath id="7a8cfa624a"><path d="M 231.421875 93.25 L 293 93.25 L 293 358 L 231.421875 358 Z M 231.421875 93.25 " clip-rule="nonzero"/></clipPath><clipPath id="eedcc12b72"><path d="M 357.988281 225.625 C 357.988281 298.726562 298.726562 357.988281 225.625 357.988281 C 152.523438 357.988281 93.261719 298.726562 93.261719 225.625 C 93.261719 152.523438 152.523438 93.261719 225.625 93.261719 C 298.726562 93.261719 357.988281 152.523438 357.988281 225.625 Z M 357.988281 225.625 " clip-rule="nonzero"/></clipPath><clipPath id="5680faa767"><path d="M 93.25 171 L 358 171 L 358 229 L 93.25 229 Z M 93.25 171 " clip-rule="nonzero"/></clipPath><clipPath id="1a49634b2d"><path d="M 357.988281 225.625 C 357.988281 298.726562 298.726562 357.988281 225.625 357.988281 C 152.523438 357.988281 93.261719 298.726562 93.261719 225.625 C 93.261719 152.523438 152.523438 93.261719 225.625 93.261719 C 298.726562 93.261719 357.988281 152.523438 357.988281 225.625 Z M 357.988281 225.625 " clip-rule="nonzero"/></clipPath><clipPath id="eb602ac0b7"><path d="M 308 100 L 358 100 L 358 282.789062 L 308 282.789062 Z M 308 100 " clip-rule="nonzero"/></clipPath><clipPath id="6b1e25905f"><path d="M 357.988281 225.625 C 357.988281 298.726562 298.726562 357.988281 225.625 357.988281 C 152.523438 357.988281 93.261719 298.726562 93.261719 225.625 C 93.261719 152.523438 152.523438 93.261719 225.625 93.261719 C 298.726562 93.261719 357.988281 152.523438 357.988281 225.625 Z M 357.988281 225.625 " clip-rule="nonzero"/></clipPath><clipPath id="592c0fce29"><path d="M 97.070312 96 L 249 96 L 249 355 L 97.070312 355 Z M 97.070312 96 " clip-rule="nonzero"/></clipPath><clipPath id="7dd39dd702"><path d="M 357.988281 225.625 C 357.988281 298.726562 298.726562 357.988281 225.625 357.988281 C 152.523438 357.988281 93.261719 298.726562 93.261719 225.625 C 93.261719 152.523438 152.523438 93.261719 225.625 93.261719 C 298.726562 93.261719 357.988281 152.523438 357.988281 225.625 Z M 357.988281 225.625 " clip-rule="nonzero"/></clipPath><clipPath id="f36db06424"><path d="M 163.617188 110.6875 L 288 110.6875 L 288 340.9375 L 163.617188 340.9375 Z M 163.617188 110.6875 " clip-rule="nonzero"/></clipPath></defs><g clip-path="url(#3b62add87d)"><path fill="#000000" d="M 225.613281 375.988281 C 142.621094 375.988281 75.4375 308.410156 75.4375 225.8125 C 75.4375 142.820312 143.015625 75.636719 225.613281 75.636719 C 308.609375 75.636719 375.792969 143.214844 375.792969 225.8125 C 376.1875 308.410156 308.609375 375.988281 225.613281 375.988281 Z M 225.613281 113.179688 C 163.964844 113.179688 113.378906 163.765625 113.378906 225.417969 C 113.378906 287.070312 163.964844 338.050781 225.613281 338.050781 C 287.265625 338.050781 338.246094 287.464844 338.246094 225.417969 C 338.246094 163.371094 287.660156 113.179688 225.613281 113.179688 Z M 225.613281 113.179688 " fill-opacity="1" fill-rule="nonzero"/></g><g clip-path="url(#52f11947b2)"><g clip-path="url(#5b38c4d88c)"><path fill="#ef7116" d="M 357.988281 225.625 C 357.988281 298.726562 298.726562 357.988281 225.625 357.988281 C 152.523438 357.988281 93.261719 298.726562 93.261719 225.625 C 93.261719 152.523438 152.523438 93.261719 225.625 93.261719 C 298.726562 93.261719 357.988281 152.523438 357.988281 225.625 " fill-opacity="1" fill-rule="nonzero"/></g></g><g clip-path="url(#7a8cfa624a)"><g clip-path="url(#eedcc12b72)"><path fill="#593014" d="M 245.105469 394.734375 L 238.335938 391.523438 C 295.027344 271.765625 290.0625 191.578125 275.925781 145.410156 C 260.742188 95.84375 232.277344 74.15625 231.988281 73.941406 L 236.476562 67.941406 C 237.714844 68.871094 267.195312 91.328125 283.078125 143.210938 C 292.351562 173.492188 295.011719 207.566406 290.996094 244.5 C 285.976562 290.441406 270.539062 340.996094 245.105469 394.734375 " fill-opacity="1" fill-rule="nonzero"/></g></g><g clip-path="url(#5680faa767)"><g clip-path="url(#1a49634b2d)"><path fill="#593014" d="M 69.445312 228.957031 L 66.007812 222.292969 C 105.050781 202.167969 145.460938 187.78125 186.109375 179.5625 C 218.65625 172.992188 251.429688 170.316406 283.5 171.632812 C 338.242188 173.886719 371.578125 186.796875 372.964844 187.347656 L 370.222656 194.316406 C 369.789062 194.144531 336.332031 181.25 282.84375 179.117188 C 233.4375 177.128906 156.289062 184.160156 69.449219 228.957031 " fill-opacity="1" fill-rule="nonzero"/></g></g><g clip-path="url(#eb602ac0b7)"><g clip-path="url(#6b1e25905f)"><path fill="#593014" d="M 354.8125 282.722656 C 331.101562 244.777344 319.839844 197.121094 314.574219 163.835938 C 308.871094 127.851562 308.738281 100.363281 308.738281 100.085938 L 316.234375 100.074219 C 316.234375 101.140625 317.023438 208.09375 361.160156 278.757812 L 354.8125 282.722656 " fill-opacity="1" fill-rule="nonzero"/></g></g><g clip-path="url(#592c0fce29)"><g clip-path="url(#7dd39dd702)"><path fill="#593014" d="M 120 354.445312 L 115.363281 348.554688 C 166.945312 307.921875 203.195312 271.238281 223.082031 239.535156 C 239.730469 212.992188 245.066406 189.746094 238.929688 170.421875 C 220.039062 110.914062 98.730469 103.894531 97.503906 103.8125 L 97.886719 96.34375 C 99.191406 96.410156 129.917969 98.109375 163.652344 107.582031 C 183.582031 113.179688 200.363281 120.34375 213.519531 128.890625 C 230.3125 139.796875 241.257812 153.007812 246.066406 168.144531 C 260.726562 214.324219 218.316406 277.007812 120 354.445312 " fill-opacity="1" fill-rule="nonzero"/></g></g><g clip-path="url(#f36db06424)"><path fill="#000000" d="M 163.832031 291.539062 C 164.03125 290.332031 164.695312 283.824219 164.753906 282.445312 C 164.8125 281.0625 165.273438 277.726562 165.820312 277.550781 C 166.367188 277.378906 168.039062 277.839844 168.152344 277.898438 C 168.269531 277.953125 168.472656 278.242188 168.472656 278.242188 C 168.472656 278.242188 168.730469 277.898438 169.191406 277.925781 C 169.652344 277.953125 174.667969 279.191406 175.300781 279.421875 C 175.9375 279.652344 176.367188 279.710938 176.367188 279.710938 C 176.367188 279.710938 176.800781 278.617188 177.722656 278.5 C 178.644531 278.386719 180.257812 278.214844 181.121094 277.667969 C 181.988281 277.121094 184.8125 275.480469 186.367188 274.933594 C 187.921875 274.386719 188.242188 275.046875 188.242188 275.046875 C 188.242188 275.046875 193.246094 272.339844 195.617188 270.933594 C 198.382812 269.292969 199.824219 267.9375 202.304688 266.039062 C 204.78125 264.140625 207.894531 264.226562 210.460938 263.765625 C 213.023438 263.304688 217.328125 262.035156 217.722656 261.808594 C 218.671875 261.261719 224.726562 250.46875 225.648438 249.722656 C 225.648438 249.722656 225.5625 248.425781 226.050781 247.707031 C 226.539062 246.988281 227.722656 246.324219 227.953125 245.578125 C 228.183594 244.828125 229.019531 242.351562 229.449219 241.34375 C 229.882812 240.339844 231.410156 235.617188 231.554688 235.300781 C 231.699219 234.984375 231.238281 234.695312 231.351562 233.777344 C 231.46875 232.855469 232.417969 231.042969 232.449219 230.464844 C 232.476562 229.890625 232.824219 226.785156 233.601562 225 C 234.378906 223.214844 236.886719 222.496094 237.347656 221.113281 C 237.808594 219.730469 239.96875 217.199219 240.488281 217.113281 C 240.972656 217.03125 242.628906 216.753906 242.785156 216.738281 C 242.648438 216.738281 241.320312 216.054688 241.179688 215.011719 C 241.035156 213.945312 241.898438 211.816406 241.554688 208.652344 C 241.207031 205.484375 240.71875 203.585938 240.949219 201.082031 C 241.179688 198.578125 240.691406 194.144531 239.882812 190.722656 C 239.078125 187.296875 238.242188 183.324219 238.15625 182.546875 C 238.066406 181.769531 238.558594 181.480469 238.527344 179.984375 C 238.5 178.488281 239.679688 176.761719 241.066406 175.46875 C 242.449219 174.171875 245.332031 172.53125 245.703125 171.929688 C 246.078125 171.324219 246.886719 170.605469 247.261719 170.402344 C 247.636719 170.199219 248.847656 169.195312 249.132812 169.019531 C 249.421875 168.847656 249.96875 168.789062 249.96875 168.789062 C 249.96875 168.789062 250.113281 167.554688 249.941406 167.132812 C 249.769531 166.707031 248.746094 164.871094 248.402344 164.542969 C 247.40625 163.582031 245.5625 160.703125 245.3125 159.1875 C 245.203125 158.523438 246.28125 153.363281 247.289062 152.039062 C 248.058594 151.03125 250.035156 149.539062 252.394531 148.617188 C 251.714844 144.804688 251.097656 141.480469 250.976562 141.074219 C 250.691406 140.097656 250.113281 136.585938 249.824219 136.125 C 249.539062 135.664062 248.210938 133.765625 248.097656 133.363281 C 247.980469 132.957031 247.921875 132.039062 248.386719 131.519531 C 248.84375 131 248.097656 128.988281 247.691406 127.777344 C 247.253906 126.464844 246.367188 123.804688 246.253906 122.484375 C 246.136719 121.160156 246.597656 118.222656 246.886719 118.109375 C 247.117188 118.015625 247.351562 117.886719 247.703125 118.289062 C 249.300781 113.996094 253.441406 110.933594 258.296875 110.933594 C 264.539062 110.933594 269.59375 115.984375 269.59375 122.214844 C 269.59375 128.445312 264.539062 133.496094 258.296875 133.496094 C 257.851562 133.496094 257.410156 133.46875 256.976562 133.417969 C 256.859375 134.296875 256.570312 136.019531 256.394531 136.414062 C 256.164062 136.929688 256.28125 137.792969 256.628906 138.828125 C 256.941406 139.777344 259.320312 146.378906 260.042969 148.3125 C 261.210938 148.613281 262.054688 148.960938 262.246094 149.074219 C 262.679688 149.335938 264.273438 151.378906 264.523438 151.53125 C 264.773438 151.683594 265.792969 152.78125 265.808594 153.027344 C 265.828125 153.277344 265.679688 154.253906 265.773438 154.449219 C 265.925781 154.773438 266.628906 155.28125 267.328125 155.847656 C 268.25 156.597656 269.019531 156.710938 269.078125 157.308594 C 269.132812 157.902344 268.730469 158.34375 268.578125 158.476562 C 268.421875 158.613281 268.019531 158.789062 268.355469 159.148438 C 268.71875 159.539062 269.355469 159.984375 269.507812 159.984375 C 269.664062 159.984375 269.894531 160.402344 269.796875 160.746094 C 269.703125 161.09375 268.980469 161.222656 268.75 161.527344 C 268.519531 161.835938 268.011719 163.078125 267.960938 163.390625 C 267.933594 163.585938 268.960938 164.398438 269.148438 165.148438 C 269.351562 165.957031 269.269531 166.726562 269.078125 166.863281 C 268.886719 166.996094 268.035156 166.019531 267.824219 166.113281 C 267.609375 166.210938 267.195312 166.765625 267.195312 167.074219 C 267.195312 167.382812 267.808594 168.472656 267.695312 169.25 C 267.578125 170.027344 267.460938 170.746094 266.398438 171.09375 C 265.332031 171.4375 262.9375 171.292969 262.734375 171.640625 C 262.535156 171.984375 262.558594 172.585938 262.652344 173.019531 C 262.792969 173.710938 261.988281 174.921875 261.988281 174.921875 C 261.988281 174.921875 264.265625 176.332031 264.871094 176.964844 C 265.476562 177.597656 265.792969 178.261719 265.707031 178.632812 C 265.617188 179.007812 265.503906 179.035156 265.761719 179.46875 C 266.023438 179.898438 268.613281 183.757812 269.566406 185.773438 C 270.519531 187.785156 270.199219 190.089844 270.171875 192.160156 C 270.144531 194.234375 270.230469 196.132812 270.402344 196.621094 C 270.402344 196.621094 273.746094 207.210938 274.207031 208.824219 C 274.667969 210.433594 278.355469 216.382812 279.664062 220.679688 C 279.664062 220.679688 280.164062 220.566406 280.46875 221.410156 C 280.777344 222.253906 281.46875 224.863281 281.699219 225.59375 C 281.929688 226.324219 282.390625 227.089844 282.390625 227.359375 C 282.390625 227.628906 282.199219 228.089844 282.199219 228.089844 C 282.199219 228.089844 284.089844 234.320312 284.3125 234.839844 C 284.734375 235.839844 285.773438 236.875 285.808594 238.140625 C 285.851562 239.410156 286.617188 242.402344 286.886719 243.628906 C 287.15625 244.859375 287.617188 246.929688 287.539062 247.160156 C 287.460938 247.390625 287.003906 249.195312 287.003906 249.847656 C 287.003906 250.496094 287.460938 253.070312 287.617188 253.988281 C 287.769531 254.910156 288.136719 256.578125 287.921875 256.792969 C 287.460938 257.25 286.503906 256.828125 286.308594 256.445312 C 286.117188 256.0625 285.351562 253.605469 285.351562 253.605469 C 285.351562 253.605469 285.542969 255.71875 285.3125 255.832031 C 285.082031 255.945312 284.003906 255.753906 283.851562 254.988281 C 283.699219 254.21875 283.503906 251.726562 283.503906 251.113281 C 283.503906 250.496094 283.660156 248.847656 283.621094 248.464844 C 283.582031 248.082031 283.351562 248.117188 283.082031 248.503906 C 282.8125 248.886719 281.46875 250.574219 281.238281 251.265625 C 281.007812 251.957031 280.738281 252.992188 280.507812 252.992188 C 280.277344 252.992188 279.664062 252.648438 279.816406 251.378906 C 279.96875 250.113281 280.816406 248.3125 281.085938 247.890625 C 281.351562 247.464844 282.3125 246.199219 282.3125 246.007812 C 282.3125 245.816406 281.96875 243.820312 281.660156 243.476562 C 281.351562 243.128906 281.046875 244.167969 280.699219 244.589844 C 280.355469 245.011719 278.933594 245.355469 278.316406 244.894531 C 277.703125 244.433594 278.242188 243.976562 278.664062 243.707031 C 279.085938 243.4375 279.894531 241.402344 280.007812 240.710938 C 280.125 240.023438 280.316406 239.5625 280.738281 238.910156 C 281.160156 238.257812 276.511719 232.730469 275.667969 231.773438 C 275.667969 231.773438 274.128906 231.65625 273.476562 230.582031 C 272.824219 229.507812 271.726562 227.445312 271.363281 226.9375 C 270.519531 225.746094 270.132812 224.710938 270.519531 224.328125 C 270.519531 224.328125 268.136719 219.492188 267.828125 218.226562 C 267.828125 218.226562 266.714844 220.644531 266.484375 221.21875 C 266.253906 221.796875 265.945312 223.828125 265.0625 224.097656 C 265.0625 224.097656 265.597656 225.171875 265.023438 226.09375 C 264.445312 227.011719 263.90625 229.507812 263.90625 229.507812 C 263.90625 229.507812 264.753906 230.007812 264.984375 231.542969 C 265.214844 233.078125 266.636719 234.804688 266.097656 236.335938 C 265.5625 237.875 264.023438 243.976562 264.292969 245.546875 C 264.5625 247.121094 265.40625 248.195312 265.292969 250.496094 C 265.175781 252.800781 265.175781 254.796875 265.636719 256.292969 C 266.097656 257.789062 265.367188 259.667969 265.753906 260.667969 C 266.136719 261.664062 266.488281 262.59375 266.367188 262.777344 C 265.945312 263.429688 263.445312 264.464844 263.445312 264.464844 C 263.445312 264.464844 262.523438 269.03125 261.679688 272.332031 C 260.835938 275.632812 259.414062 279.929688 259.414062 280.8125 C 259.414062 281.695312 259.71875 284.304688 258.992188 285.648438 C 258.261719 286.992188 255.6875 288.527344 255.6875 288.527344 C 255.6875 288.527344 255.722656 289.484375 254.6875 290.367188 C 253.648438 291.25 252.304688 292.058594 250.730469 293.589844 C 249.152344 295.125 242.390625 301.917969 242.007812 302.1875 C 241.621094 302.457031 241.007812 302.378906 241.007812 302.378906 C 241.007812 302.378906 233.128906 308.558594 232.476562 309.058594 C 232.476562 309.058594 232.785156 309.707031 231.785156 310.820312 C 230.785156 311.933594 228.097656 313.96875 227.328125 314.773438 C 226.558594 315.578125 224.523438 317.382812 224.179688 317.84375 C 223.832031 318.304688 223.488281 318.726562 224.292969 318.421875 C 225.097656 318.113281 226.328125 317.460938 226.597656 317.726562 C 226.867188 317.996094 226.90625 318.84375 226.523438 319.378906 C 226.136719 319.917969 224.0625 321.105469 223.214844 321.488281 C 222.371094 321.875 221.257812 322.910156 220.449219 323.445312 C 219.644531 323.984375 218.953125 324.253906 218.605469 324.90625 C 218.261719 325.558594 216.183594 329.316406 215.917969 329.585938 C 215.648438 329.855469 214.300781 333.039062 214.109375 334 C 213.917969 334.957031 213.417969 339.027344 212.457031 339.71875 C 211.496094 340.410156 211.113281 340.292969 211.113281 340.292969 C 211.113281 340.292969 210.777344 340.582031 210.488281 340.636719 C 210.199219 340.695312 208.644531 340.636719 208.5 340.265625 C 208.355469 339.890625 206.308594 333.558594 206.195312 330.21875 C 206.078125 326.882812 206.769531 322.96875 206.484375 321.238281 C 206.195312 319.511719 205.214844 315.136719 205.386719 313.988281 C 205.558594 312.835938 206.195312 310.5625 206.914062 310.074219 C 207.636719 309.585938 209.308594 309.757812 209.308594 309.757812 L 209.625 309.988281 C 209.625 309.988281 209.824219 309.671875 210.660156 309.585938 C 211.496094 309.496094 216.945312 309.554688 217.519531 309.757812 C 218.097656 309.957031 218.011719 308.578125 218.761719 308.085938 C 219.507812 307.597656 219.941406 307.828125 220.054688 307.65625 C 220.171875 307.484375 220.835938 306.878906 221.179688 306.761719 C 221.527344 306.648438 221.988281 305.035156 222.535156 304.921875 C 223.082031 304.808594 223.945312 303.972656 224.640625 303.367188 C 225.332031 302.761719 226.539062 302.042969 227.117188 302.589844 C 227.117188 302.589844 232.910156 295.425781 233.800781 293.957031 C 233.800781 293.957031 233.398438 292.605469 234.4375 291.769531 C 235.472656 290.933594 238.617188 288.171875 239.796875 286.675781 C 240.980469 285.179688 244.234375 281.234375 244.667969 280.917969 C 245.097656 280.601562 245.878906 280.515625 245.878906 280.515625 C 245.878906 280.515625 246.625 279.191406 246.683594 278.730469 C 246.742188 278.269531 246.339844 271.25 246.050781 269.980469 C 245.761719 268.714844 245.1875 265.980469 245.1875 265.980469 C 245.1875 265.980469 243.109375 265.492188 242.734375 264.945312 C 242.363281 264.398438 243.140625 263.191406 242.910156 262.011719 C 242.679688 260.832031 241.207031 256.3125 241.207031 256.3125 C 241.207031 256.3125 240.746094 256.917969 240.546875 256.886719 C 240.546875 256.886719 233.484375 264.226562 232.851562 264.832031 C 232.21875 265.433594 227.550781 269.089844 227.058594 269.40625 C 226.570312 269.722656 226.050781 271.507812 224.609375 271.910156 C 223.167969 272.3125 217.175781 273.523438 214.8125 274.242188 C 212.449219 274.960938 199.882812 278.960938 198.617188 279.394531 C 197.347656 279.824219 191.441406 281.898438 191.441406 281.898438 C 191.441406 281.898438 191.46875 282.472656 191.121094 282.730469 C 190.777344 282.992188 185.847656 286.1875 185.300781 286.617188 C 184.753906 287.050781 184.261719 287.308594 184.261719 287.308594 C 184.261719 287.308594 185.042969 288.976562 184.609375 289.582031 C 184.175781 290.1875 181.871094 290.558594 180.660156 291.078125 C 179.453125 291.597656 179.078125 292.34375 178.210938 292.660156 C 177.347656 292.976562 176.109375 293.179688 175.9375 293.4375 C 175.761719 293.699219 174.320312 295.710938 173.542969 296.691406 C 172.765625 297.667969 171.496094 299.136719 171.007812 299.394531 C 170.515625 299.65625 169.59375 302.101562 169.132812 303.425781 C 168.671875 304.75 167.664062 306.015625 167.144531 306.128906 C 166.625 306.246094 166.625 306.246094 166.625 306.246094 C 166.625 306.246094 166.339844 306.675781 165.90625 306.675781 C 165.472656 306.675781 164.65625 306.460938 164.550781 306.074219 C 164.4375 305.640625 163.859375 301.152344 163.746094 299.222656 C 163.628906 297.296875 163.628906 292.746094 163.832031 291.539062 " fill-opacity="1" fill-rule="nonzero"/></g></svg>